<?xml version="1.0" standalone="no"?><!DOCTYPE svg PUBLIC "-//W3C//DTD SVG 1.1//EN" "http://www.w3.org/Graphics/SVG/1.1/DTD/svg11.dtd"><svg t="1616508988255" class="icon" viewBox="0 0 1024 1024" version="1.1" xmlns="http://www.w3.org/2000/svg" p-id="3027" width="128" height="128" xmlns:xlink="http://www.w3.org/1999/xlink"><defs><style type="text/css"></style></defs><path d="M400.384 211.968h-133.12c-49.152 0-88.064 39.936-88.064 88.064v133.12c0 1.024 0 21.504 21.504 21.504s21.504-20.48 21.504-21.504v-133.12c0-25.6 20.48-46.08 46.08-46.08h133.12c1.024 0 21.504 0 21.504-21.504-1.024-19.456-21.504-20.48-22.528-20.48zM756.736 211.968h-133.12c-1.024 0-21.504 0-21.504 21.504s20.48 21.504 21.504 21.504h133.12c25.6 0 46.08 20.48 46.08 46.08v133.12c0 1.024 0 21.504 21.504 21.504s21.504-20.48 21.504-21.504v-133.12c-1.024-49.152-40.96-89.088-89.088-89.088zM400.384 769.024h-133.12c-25.6 0-46.08-20.48-46.08-46.08v-133.12c0-1.024 0-21.504-21.504-21.504s-21.504 20.48-21.504 21.504v133.12c0 49.152 39.936 88.064 88.064 88.064h133.12c1.024 0 21.504 0 21.504-21.504 1.024-20.48-19.456-20.48-20.48-20.48zM823.296 568.32c-21.504 0-21.504 20.48-21.504 21.504v133.12c0 25.6-20.48 46.08-46.08 46.08h-133.12c-1.024 0-21.504 0-21.504 21.504s20.48 21.504 21.504 21.504h133.12c49.152 0 88.064-39.936 88.064-88.064v-133.12c1.024-2.048 1.024-22.528-20.48-22.528z" fill="#ffffff" p-id="3028"></path><path d="M448.512 488.448h125.952c11.264 0 22.528 9.216 22.528 23.552 0 12.288-8.192 23.552-22.528 23.552H448.512c-11.264 0-22.528-9.216-22.528-23.552s10.24-23.552 22.528-23.552" fill="#ffffff" p-id="3029"></path></svg>