<?xml version="1.0" standalone="no"?><!DOCTYPE svg PUBLIC "-//W3C//DTD SVG 1.1//EN" "http://www.w3.org/Graphics/SVG/1.1/DTD/svg11.dtd"><svg t="1617180421276" class="icon" viewBox="0 0 1024 1024" version="1.1" xmlns="http://www.w3.org/2000/svg" p-id="2066" xmlns:xlink="http://www.w3.org/1999/xlink" width="64" height="64"><defs><style type="text/css"></style></defs><path d="M907.3 795L798.4 686l50.4-50.4c26.8-26.8 41.5-62.4 41.5-100.2s-14.7-73.4-41.5-100.2l-87.6-87.6c-26.8-26.8-62.4-41.5-100.2-41.5-34.1 0-66.4 12-92 33.9 1.7-17.7-4.4-35.7-17.3-48.6-12.9-12.9-30.7-19.2-48.9-17.3-18.1 1.9-34.3 11.8-44.2 27.1l-17.8 27.4-15.8-15.8c17.2-56.5 2.1-118.1-40.3-160.5-23.1-23.1-52.2-38.4-84.2-44.4-31.2-5.8-63.1-2.4-92.3 9.9-7.1 3-12.2 9.3-13.6 16.8-1.5 7.5 0.9 15.3 6.3 20.7l62.3 62.3-41 41-62.2-62.4c-5.4-5.4-13.2-7.8-20.7-6.3s-13.8 6.6-16.8 13.6c-12.3 29.1-15.7 61-9.9 92.2 6 32 21.3 61.1 44.4 84.2 30.8 30.8 72 47.2 113.9 47.2 14.9 0 29.8-2.1 44.4-6.3l47.8 47.8-8 18.1c-11 25.1-16.9 51.7-17.5 79.1l-1.7 80.3-70.4 79c-8.1 9.1-7.7 22.9 0.9 31.6L439.7 930c4.5 4.5 10.4 6.7 16.3 6.7 5.5 0 10.9-1.9 15.3-5.8l82.5-73.5 88.5-37.1c16.5-6.9 31.9-15.8 45.9-26.6l110.2 110.2c4.5 4.5 10.4 6.7 16.3 6.7s11.8-2.2 16.3-6.7l76.4-76.4c8.9-9 8.9-23.5-0.1-32.5zM337.8 378.2c-6.5-6.5-16.2-8.5-24.7-5.1-42.6 16.8-91.1 6.7-123.5-25.7-24.3-24.3-36-57.2-33.4-90l49.9 49.9c9 9 23.5 9 32.5 0l73.5-73.5c4.3-4.3 6.7-10.2 6.7-16.3 0-6.1-2.4-12-6.7-16.3l-49.9-49.9c32.8-2.5 65.7 9.2 90 33.4 33 33 42.8 82.1 25 125.2-3.5 8.6-1.6 18.5 5 25l33 33-23.2 36c-0.7 1-1.3 2.1-1.8 3.3l-7.2 16.3-45.2-45.3z m286.7 399.7l-92 38.6c-2.3 1-4.5 2.3-6.4 4l-69.2 61.6-142.6-142.6 61.6-69.2c3.6-4.1 5.7-9.3 5.8-14.8l1.9-88.8c0.5-21.3 5-42 13.6-61.5l34.3-77.8 32.3-49.7c0.1-0.1 0.1-0.2 0.2-0.3l33.2-51.2c3.2-4.9 7.9-6.1 10.4-6.4 2.5-0.3 7.4-0.1 11.5 4.1 4.2 4.1 5.3 10.5 2.9 15.9l-40 88.7c-4.6 10.1-1.3 22.1 7.9 28.4 9.1 6.3 21.5 5.2 29.3-2.7l74-74c18.1-18.1 42.1-28 67.7-28s49.6 10 67.7 28l87.6 87.6c18.1 18.1 28 42.1 28 67.7s-10 49.6-28 67.7l-140 140c-14.9 14.8-32.3 26.5-51.7 34.7z m190.2 77.2L722 762.4l43.8-43.8 92.7 92.7-43.8 43.8z" p-id="2067" fill="#cdcdcd"></path></svg>